# xmcd
#
# Track frame offsets: 
#        150
#        18895
#        28900
#        41318
#        56372
#        73766
#        89144
#        101471
#        113744
#        125639
#        140666
#        154073
#        168668
#        189770
#        205631
#        221244
#        233616
#        249197
#        274619
#
# Disc length: 3876 seconds
#
# Revision: 2
# Processed by: cddbd v1.5.2PL0 Copyright (c) Steve Scherf et al.
# Submitted via: ExactAudioCopy v0.95b1
#
DISCID=060f2213
DTITLE=Various Artist - Talvehitt 2005
DYEAR=2005
DGENRE=Pop
TTITLE0=Vanilla Ninja - Kauge kuu
TTITLE1=Kala - Buratino
TTITLE2=Paavo and Liis - Baar
TTITLE3=Rolf Junior - Nüüd ma tean
TTITLE4=Dynamint - Tulen sinuga (Supersonic Remix)
TTITLE5=Marco - Unistuste öö
TTITLE6=Koer - Te olete värdjad
TTITLE7=Pixie Twins - Üks leek
TTITLE8=Chupacabra - Tusane ja must
TTITLE9=Nexus - Maybe
TTITLE10=April Frost - Strip Your Heart
TTITLE11=Armin - Miks
TTITLE12=M.C.O. - My Energy
TTITLE13=Runaway - Lõputu tee
TTITLE14=Rain - Lumehelbe lend
TTITLE15=Sinu Naine - Üksi õhtul
TTITLE16=Candy - Sa tead
TTITLE17=Anna - Running (DJ Kaarel Läänemets feat. Device Radio Mix)
TTITLE18=Neljas Sammas - Tahaks jälle ma sinu sisse
EXTD=
EXTT0=
EXTT1=
EXTT2=
EXTT3=
EXTT4=
EXTT5=
EXTT6=
EXTT7=
EXTT8=
EXTT9=
EXTT10=
EXTT11=
EXTT12=
EXTT13=
EXTT14=
EXTT15=
EXTT16=
EXTT17=
EXTT18=
PLAYORDER=
